<?xml version="1.0" encoding="UTF-8"?>
<svg id="Capa_2" data-name="Capa 2" xmlns="http://www.w3.org/2000/svg" viewBox="0 0 43.02 61.5">
  <defs>
    <style>
      .cls-1 {
        fill: #fff;
      }
    </style>
  </defs>
  <g id="Capa_1-2" data-name="Capa 1">
    <g>
      <path class="cls-1" d="M1.51,50.24c-.36.2-.78.16-1.02.02s-.49-.51-.49-.92V10.19c0-.46.19-.83.56-1.03L16.45.08c.25-.15.76-.08.96.05s.45.5.45.89l.06,39.15c0,.49-.21.87-.61,1.1L1.51,50.24Z"/>
      <path class="cls-1" d="M13.42,61.32c-.51.28-.93.2-1.32-.04L.9,54.36c-.23-.14-.44-.55-.44-.77,0-.3.19-.61.47-.87l28.57-16.33c.44-.25.87-.25,1.3,0l11.73,6.97c.27.16.49.57.49.81,0,.35-.2.65-.53.9l-29.08,16.24Z"/>
    </g>
  </g>
</svg>